<svg xmlns="http://www.w3.org/2000/svg" version="1.1" xmlns:xlink="http://www.w3.org/1999/xlink" xmlns:svgjs="http://svgjs.com/svgjs" width="512" height="512" x="0" y="0" viewBox="0 0 512 512" style="enable-background:new 0 0 512 512" xml:space="preserve" class=""><g><path fill="#383333" fill-rule="evenodd" d="M181.76 104.27s4 33.62-13.45 71.87-11.77 90 30.22 96.27 143.41 15.5 159.13-23.08-4.84-58.07 0-80.71c3.45-16.14 8.17-31.57 4.18-48.24a74.58 74.58 0 0 0-9.76-20.9c-28.67-41.2-135.36-51.34-164.15-8.9a45.12 45.12 0 0 0-6.17 13.69z" data-original="#383333"></path><path fill="#ffb08d" d="M345.63 355.43c1.42-53.44 15.28-95.3-6-111.44-14-10.59-33.63-2.94-43.49-17.39-6.43-9.43-4.35-21.93-2.17-29.9l-46.75-1.09c2.1 9.16 3.72 22.92-3.81 32.62-11 14.15-30 4.9-43.48 15.22-21.68 16.58-2.23 63.07-1.09 126.66a337.83 337.83 0 0 1-12 94.58A225.22 225.22 0 0 0 250 481c49.41 5.31 89.08-7.18 110.35-15.77-13.5-46.64-15.35-84.3-14.72-109.8z" data-original="#ffb08d" class=""></path><path fill="#ffb08d" d="M153.88 351.15s-6.52 19.51 0 40 35.77 44.18 35.77 44.18l5.49-60.33zM383 351.33a64.89 64.89 0 0 1 3.24 28.67 64 64 0 0 1-5.44 19.41s-4 8-33.71 36.84l-5.5-60.33z" data-original="#ffb08d" class=""></path><path fill="#f2d6fa" d="M198.86 370.11a337.83 337.83 0 0 1-12 94.58A225.22 225.22 0 0 0 250 481c49.41 5.31 89.08-7.18 110.35-15.77-13.46-46.64-15.36-84.3-14.68-109.8 1.42-53.44 15.28-95.3-6-111.44-11.24-8.52-26.17-5.24-36.71-11.17s-15.59 16-38.34 13.87-28.2-12.69-28.2-12.69c-11 5.53-25.53 1-36.47 9.41-21.68 16.59-2.23 63.11-1.09 126.7z" data-original="#aaeeea" class=""></path><rect width="5.56" height="30.4" x="110.69" y="322.56" fill="#ffb833" rx="2.78" data-original="#ffb833"></rect><rect width="5.56" height="30.4" x="110.69" y="322.56" fill="#ffb833" rx="2.78" transform="rotate(-90 113.465 337.755)" data-original="#ffb833"></rect><rect width="5.56" height="30.4" x="399.09" y="238.24" fill="#ffb833" rx="2.78" data-original="#ffb833"></rect><rect width="5.56" height="30.4" x="399.09" y="238.24" fill="#ffb833" rx="2.78" transform="rotate(-90 401.865 253.435)" data-original="#ffb833"></rect><rect width="6.51" height="35.6" x="125.41" y="106.05" fill="#ffb833" rx="3.25" data-original="#ffb833"></rect><rect width="6.51" height="35.6" x="125.41" y="106.05" fill="#ffb833" rx="3.25" transform="rotate(-90 128.665 123.845)" data-original="#ffb833"></rect><path fill="#ff8c5f" d="M203.66 134.23c-.82-.77-5.31-4.83-11.6-4.23-.93.08-4.59.43-7 2.79-6.3 6.14-3.45 25 7.73 29.67 6.25 2.6 12.78-.23 15-1.3q-2.08-13.47-4.13-26.93z" data-original="#ff8c5f" class=""></path><path fill="#383333" d="M197.08 156.46a.37.37 0 0 1-.26-.1c-2.81-2.6-4.11-5.33-3.87-8.12.29-3.46 2.87-6.07 4.35-7.3l-9.43.63a.37.37 0 0 1-.4-.35.38.38 0 0 1 .35-.4l10.68-.71a.36.36 0 0 1 .38.25.37.37 0 0 1-.15.44s-4.66 3.09-5 7.51c-.21 2.54 1 5.07 3.64 7.5a.38.38 0 0 1 0 .53.36.36 0 0 1-.29.12z" data-original="#383333"></path><path fill="#ff8c5f" d="M336 131.5c.79-.81 5.1-5 11.42-4.71.92 0 4.59.24 7.12 2.51 6.53 5.87 4.47 24.86-6.51 30-6.14 2.85-12.77.3-15-.69Q334.51 145 336 131.5z" data-original="#ff8c5f" class=""></path><path fill="#383333" d="M343.48 153.44a.39.39 0 0 1-.27-.11.37.37 0 0 1 0-.53c2.53-2.54 3.65-5.11 3.33-7.65-.56-4.39-5.3-7.26-5.35-7.29a.37.37 0 0 1-.17-.43.37.37 0 0 1 .36-.27l10.7.27a.39.39 0 0 1 .37.39.38.38 0 0 1-.38.36l-9.44-.24c1.53 1.17 4.21 3.67 4.65 7.12.35 2.77-.84 5.55-3.54 8.27a.38.38 0 0 1-.26.11z" data-original="#383333"></path><circle cx="269.82" cy="123.85" r="77.19" fill="#ffb08d" data-original="#ffb08d" class=""></circle><path fill="#ffb08d" d="M347 122.26c-1 12.17-5.54 49.87-34.95 74.91-6.91 5.89-18.31 15.34-35.36 17.17-20.79 2.24-36.68-8.29-43.35-12.71-36.41-24.13-40.24-71.39-40.75-79.09-.01 0 102.67-72.85 154.41-.28z" data-original="#ffb08d" class=""></path><path fill="#383333" d="M220.45 126.9a23.37 23.37 0 0 1 13.3-4.66c3.26-.14 7.67-.34 9.08 2.18a3.59 3.59 0 0 1 0 3.6c-1.48 2.08-5.36.31-11.57.38-8.17.09-13.41 3.3-14 2.14-.4-.84 2.18-2.85 3.19-3.64zM314.46 126.28a23.42 23.42 0 0 0-12.72-6.06c-3.22-.5-7.58-1.17-9.25 1.19a3.56 3.56 0 0 0-.38 3.58c1.25 2.23 5.3.88 11.46 1.62 8.11 1 13 4.73 13.67 3.64.49-.79-1.86-3.07-2.78-3.97zM269.94 161.22c-3 0-6.47-.38-7.17-2-1.16-2.62 3.76-14.84 4.32-16.22a.49.49 0 0 1 .65-.27.5.5 0 0 1 .28.65c-2.07 5.07-5.08 13.76-4.34 15.44.66 1.49 6.75 1.56 10.87 1.13a.5.5 0 0 1 .1 1 45.72 45.72 0 0 1-4.71.27zM267.11 184.59a10.38 10.38 0 0 1-4.32-.86.38.38 0 0 1 .32-.68c4 1.83 9-.11 9.07-.13a.38.38 0 0 1 .49.21.39.39 0 0 1-.21.49 16.22 16.22 0 0 1-5.35.97z" data-original="#383333"></path><ellipse cx="224.55" cy="166.35" fill="#ff8c5f" rx="9.06" ry="5.64" transform="translate(-.58 .79)" data-original="#ff8c5f" class=""></ellipse><ellipse cx="309.4" cy="166.05" fill="#ff8c5f" rx="9.06" ry="5.64" transform="translate(-.58 1.08)" data-original="#ff8c5f" class=""></ellipse><path fill="#383333" fill-rule="evenodd" d="M241.42 152.59a6.73 6.73 0 1 1 .4-9.5 6.74 6.74 0 0 1-.4 9.5z" data-original="#383333"></path><path fill="#383333" fill-rule="evenodd" d="M225.62 143.38c.14-.13 1.5 2.12 3.2 1.92 1.24-.14 1.54-1.52 3.1-2.76a8.05 8.05 0 0 1 4.71-1.61 17 17 0 0 1-2.63 4c-1.5 1.7-2.47 2.8-3.81 2.84-2.73.07-4.77-4.22-4.57-4.39zM304.92 153.1a6.73 6.73 0 1 1-.16-9.51 6.75 6.75 0 0 1 .16 9.51z" data-original="#383333"></path><path fill="#383333" fill-rule="evenodd" d="M311.42 144.43c-.14-.13-1.56 2.1-3.24 1.85-1.24-.17-1.5-1.56-3-2.83a8 8 0 0 0-4.67-1.73 17.23 17.23 0 0 0 2.53 4c1.46 1.74 2.41 2.86 3.75 2.94 2.68.19 4.82-4.05 4.63-4.23z" data-original="#383333"></path><path fill="#ffffff" d="M281.29 168.62a55.2 55.2 0 0 1-27.84.57 14.39 14.39 0 0 0 27.84-.57z" data-original="#ffffff"></path><path fill="#f2d6fa" d="M219.61 237.55s-29.7-1.57-43.05 31.56-25.06 93.64-25.06 93.64l43.64 16.48S247.5 268 219.61 237.55zM317.64 237.55s29.7-1.57 43.05 31.56 25.06 93.64 25.06 93.64l-43.64 16.48S289.75 268 317.64 237.55z" data-original="#aaeeea" class=""></path><path fill="#383333" d="M271.72 214.91a65.39 65.39 0 0 1-22.93-4.26.5.5 0 0 1-.26-.66.49.49 0 0 1 .65-.26c.22.1 22.46 9.37 42.46 0a.5.5 0 0 1 .67.24.49.49 0 0 1-.24.66 47.73 47.73 0 0 1-20.35 4.28z" data-original="#383333"></path><path fill="#383333" fill-rule="evenodd" d="M287.34 64.37s-16.63-5.44-24.34 9.89c-11.8 23.22-25 32.55-45.78 42.53-2.93 1.41-6.8 2.92-10.66 6.93-8.06 8.35-8.54 19.72-11 19.49-2.23-.21-2-9.39-6.44-11.12-1-.39-2.32-.25-4.08.7 0 0-15.58-33.47 0-49.3S231.29 4.21 290 46.65c0 0 31.32-15.25 48.8 2.23s9.23 39.89 15.49 53.74 1.95 28.77 1.95 28.77-4.09-3.12-6.4-.94-2.63 12.75-6.92 11.25c-4.89-1.71 3.16-22.35-4.45-34.14-6.81-10.55-20.41-5-34.62-15.82-10.23-7.74-14.5-19.29-16.51-27.37z" data-original="#383333"></path><path fill="#ffffff" d="M201.24 110.79c-.9 0-1.81 0-2.74-.09a.5.5 0 0 1-.47-.53.53.53 0 0 1 .53-.47c21.67 1.46 31.35-15 39.88-29.43 3-5.06 5.8-9.83 8.95-13.58 12.26-14.59 31.32-9.45 31.51-9.39a.49.49 0 0 1 .34.61.5.5 0 0 1-.61.35c-.19 0-18.63-5-30.48 9.07-3.1 3.69-5.89 8.43-8.85 13.45-8.3 14.1-17.69 30.01-38.06 30.01z" data-original="#ffffff"></path><path fill="#ffffff" d="M194.15 98.86a29.73 29.73 0 0 1-6.41-.7.5.5 0 0 1-.38-.6.49.49 0 0 1 .59-.38c23.23 5.14 42.57-20.65 42.77-20.91a.5.5 0 1 1 .8.6c-.18.24-16.52 21.99-37.37 21.99zM331.81 94.86c-20 0-34.61-25.26-34.77-25.54a.5.5 0 1 1 .87-.5c.17.31 17.87 31 40.71 24a.5.5 0 0 1 .63.34.5.5 0 0 1-.34.62 24.26 24.26 0 0 1-7.1 1.08zM332.27 80.86a32.17 32.17 0 0 1-21.19-8.44.5.5 0 1 1 .71-.7c.15.15 14.88 14.82 35 4.41a.5.5 0 1 1 .46.88 32.24 32.24 0 0 1-14.98 3.85zM187.85 242.41a.46.46 0 0 1-.23 0c-4.1-2.13-7.65-7.82-9.75-15.6-2.61-9.68-3.07-23.71 3.47-34.07 9.91-15.68 7.84-26.13 7.82-26.24a.5.5 0 1 1 1-.21c.1.44 2.2 10.92-7.94 27-6.38 10.1-5.8 24.24-3.36 33.28 2 7.4 5.46 13 9.25 15a.51.51 0 0 1 .21.68.49.49 0 0 1-.47.16zM209.44 228.07a.51.51 0 0 1-.2 0 15 15 0 0 1-8.3-9.05c-2-5.67-1.49-13.29 1.42-22.65a85.45 85.45 0 0 1 4.95-12.37.51.51 0 0 1 .68-.21.5.5 0 0 1 .21.67c-.11.21-10.85 21.15-6.31 34.22a14 14 0 0 0 7.76 8.46.5.5 0 0 1-.21.95zM320.22 228.07a.46.46 0 0 1-.29-.1.49.49 0 0 1-.11-.69c10-13.63-1.64-29.17-1.76-29.32a.5.5 0 0 1 .79-.61c.13.16 12.26 16.29 1.77 30.52a.48.48 0 0 1-.4.2zM340 235.74a.49.49 0 0 1-.46-.33.49.49 0 0 1 .29-.64c2.84-1.05 6.95-5.89 9.33-13.09 1.59-4.85 3.46-14.21-2-22.52-9.24-14.14-4.73-27.5-4.68-27.63a.51.51 0 0 1 .64-.31.5.5 0 0 1 .3.64c0 .13-4.39 13 4.58 26.75 5.66 8.66 3.74 18.37 2.09 23.38-2.19 6.63-6.36 12.39-9.93 13.72z" data-original="#ffffff"></path><path fill="#383333" d="M191.6 323a.51.51 0 0 1-.44-.26c-8.79-15.52-.12-37.79 0-38a.5.5 0 1 1 .93.37c-.09.22-8.59 22.05 0 37.16a.5.5 0 0 1-.19.68.55.55 0 0 1-.3.05zM340 323h-.12a.51.51 0 0 1-.36-.61c3.16-12.62 1.47-22-.49-27.72a29 29 0 0 0-5.08-9.4.5.5 0 1 1 .73-.68c.13.13 12 13.34 5.81 38a.51.51 0 0 1-.49.41z" data-original="#383333"></path><rect width="205.48" height="137.7" x="166.53" y="316.38" fill="#ffdb99" rx="7.16" data-original="#ffdb99"></rect><rect width="80.27" height="18.61" x="229.14" y="332.55" fill="#ffb833" rx="9.3" data-original="#ffb833"></rect><path fill="#ffb08d" d="M210.12 454.14s8.17-3.9 10.7-6 5.45-9.92 9-9.33-1.26 12.45-1.26 12.45q8.37-13.38 10.36-12.48 1.77.79-1.65 13.19a56.63 56.63 0 0 1 3.3-6.51c1.72-2.91 2.84-4.21 4.53-4.78a2.32 2.32 0 0 1 1.81-.17c1 .6 1.18 3.36-2 12.37 5.26-8.75 7.28-10.29 8.13-9.94 1.42.58.1 6.71-.8 9.69-1 3.45-2.05 6.86-4.86 7.75a6.33 6.33 0 0 1-4.78-.74 5.68 5.68 0 0 1-3 .82 6 6 0 0 1-4.27-2 7.69 7.69 0 0 1-6.29.76 7.22 7.22 0 0 1-3.49-2.63 14.22 14.22 0 0 1-6.25 1.3 14.72 14.72 0 0 1-9.18-3.75z" data-original="#ffb08d" class=""></path><path fill="#ffb08d" d="M201.59 454.07c3.24 5.34 5.07 6.34 6.16 6.06 2.05-.52 3.37-6 3.4-6.1h-3.58c-2.01-.03-4.01-.03-5.98.04z" data-original="#ffb08d" class=""></path><path fill="#383333" d="M225.56 456.91a.38.38 0 0 1-.35-.23.37.37 0 0 1 .21-.49c.73-.3 2.17-3.5 3-5.68a.36.36 0 0 1 .47-.22.37.37 0 0 1 .23.48c-.33.93-2.07 5.58-3.38 6.11zM235.34 458.78a.38.38 0 0 1-.33-.2.39.39 0 0 1 .16-.51c.47-.31 1.36-3.74 1.92-6.74a.36.36 0 0 1 .43-.3.37.37 0 0 1 .31.43c-.38 2-1.36 6.79-2.32 7.28a.33.33 0 0 1-.17.04zM242.58 460a.38.38 0 0 1-.25-.09.37.37 0 0 1 0-.53c1.31-1.47 2.21-6.53 2.22-6.58a.36.36 0 0 1 .43-.3.37.37 0 0 1 .31.43c0 .22-.95 5.32-2.4 7a.39.39 0 0 1-.31.07z" data-original="#383333"></path><path fill="#ffb08d" d="M317.12 454.14s-8.17-3.9-10.7-6-5.44-9.92-8.94-9.33 1.26 12.45 1.26 12.45q-8.39-13.38-10.36-12.48-1.78.79 1.64 13.19a56.8 56.8 0 0 0-3.29-6.51c-1.72-2.91-2.85-4.21-4.54-4.78a2.32 2.32 0 0 0-1.81-.17c-1 .6-1.17 3.36 2 12.37-5.27-8.75-7.29-10.29-8.13-9.94-1.42.58-.1 6.71.79 9.69 1 3.45 2.05 6.86 4.87 7.75a6.34 6.34 0 0 0 4.78-.74 5.66 5.66 0 0 0 3 .82 6 6 0 0 0 4.27-2 7.7 7.7 0 0 0 6.3.76 7.32 7.32 0 0 0 3.49-2.63 14.2 14.2 0 0 0 6.24 1.3 14.69 14.69 0 0 0 9.13-3.75z" data-original="#ffb08d" class=""></path><path fill="#ffb08d" d="M325.66 454.07c-3.24 5.34-5.07 6.34-6.16 6.06-2.05-.52-3.38-6-3.4-6.1h3.57c2.02-.03 4.01-.03 5.99.04z" data-original="#ffb08d" class=""></path><path fill="#383333" d="M301.69 456.91a.35.35 0 0 1-.14 0c-1.31-.53-3.05-5.18-3.38-6.11a.37.37 0 0 1 .22-.48.38.38 0 0 1 .48.22c.79 2.18 2.22 5.38 3 5.68a.38.38 0 0 1 .21.49.38.38 0 0 1-.39.2zM291.9 458.78a.38.38 0 0 1-.17 0c-1-.49-1.93-5.25-2.31-7.28a.38.38 0 0 1 .74-.13c.55 3 1.45 6.43 1.92 6.75a.37.37 0 0 1-.18.7zM284.67 460a.36.36 0 0 1-.28-.12c-1.46-1.63-2.36-6.73-2.4-7a.37.37 0 0 1 .3-.43.38.38 0 0 1 .44.3c0 .05.9 5.11 2.22 6.58a.37.37 0 0 1-.28.62z" data-original="#383333"></path><path fill="#ff1a26" d="m268.17 372.83 8.21-6.16c22.53-16.88 50 13.94 30.42 34.2l-.51.53-32.41 32.4a8.42 8.42 0 0 1-11.91 0l-31.59-31.59-.48-.49c-20.06-20.72 8.36-52.16 31.1-34.46z" data-original="#ff1a26"></path><g fill="#fff"><path d="M212.84 61a2.53 2.53 0 0 1-1.84-.8 2.5 2.5 0 0 1 .15-3.53c1.22-1.13 30.07-27.41 51-20.47a2.5 2.5 0 0 1-1.57 4.75c-18.15-6-45.76 19.14-46 19.39a2.46 2.46 0 0 1-1.74.66zM260.77 210.56c-16 0-33.9-16.58-34.69-17.33a2.5 2.5 0 1 1 3.42-3.65c.19.18 18.9 17.51 33.17 15.87a2.5 2.5 0 0 1 .56 5 22.26 22.26 0 0 1-2.46.11zM176.59 284.81a2.54 2.54 0 0 1-.89-.16 2.5 2.5 0 0 1-1.45-3.22 124.23 124.23 0 0 1 8.84-18c7.54-12.55 15.31-19.46 23.09-20.54a2.5 2.5 0 0 1 .69 5c-12.63 1.76-24.45 26.12-27.94 35.36a2.5 2.5 0 0 1-2.34 1.56zM173.06 417.69a2.5 2.5 0 0 1-2.5-2.5v-64a2.5 2.5 0 0 1 5 0v64a2.5 2.5 0 0 1-2.5 2.5zM317.12 323.7h-94a2.5 2.5 0 1 1 0-5h94a2.5 2.5 0 0 1 0 5zM364.13 429a2.5 2.5 0 0 1-2.5-2.5v-79.69a2.5 2.5 0 0 1 5 0v79.72a2.5 2.5 0 0 1-2.5 2.47zM274 202.14c-4.35 0-3.7 6.74.63 6.74s3.73-6.74-.63-6.74zM206.29 65.7c-4.35 0-3.71 6.74.63 6.74s3.7-6.74-.63-6.74zM363 437.42c-4.35 0-3.7 6.74.63 6.74s3.69-6.74-.63-6.74zM333.33 319.29c-4.35 0-3.71 6.74.63 6.74s3.7-6.74-.63-6.74zM175.83 429.64c-4.35 0-3.71 6.74.62 6.74s3.71-6.74-.62-6.74zM175.34 293.53c-4.35 0-3.7 6.74.63 6.74s3.7-6.74-.63-6.74z" fill="#ffffff" data-original="#ffffff"></path></g></g></svg>