<svg id="stars" height="512" viewBox="0 0 60 60" width="512" xmlns="http://www.w3.org/2000/svg">
<path d="m30.814 4.508 5.068 10.168.008.006 11.332 1.631a.9.9 0 0 1 .5 1.533l-8.2 7.919 1.937 11.182a.906.906 0 0 1 -1.317.948l-9.966-5.189a.38.38 0 0 0 -.35 0l-9.967 5.194a.906.906 0 0 1 -1.317-.948l1.937-11.182-8.2-7.919a.9.9 0 0 1 .5-1.533l11.328-1.63a.021.021 0 0 0 .014-.01l5.065-10.17a.906.906 0 0 1 1.628 0z" class="rainbow"/><g class="rainbow"><path d="m12.5 35.314 3.1 6.28h.005l6.926 1.007a.556.556 0 0 1 .307.947l-5.014 4.891 1.176 6.911a.555.555 0 0 1 -.8.585l-6.09-3.205a.231.231 0 0 0 -.214 0l-6.096 3.205a.555.555 0 0 1 -.8-.585l1.184-6.907-5.016-4.891a.556.556 0 0 1 .307-.947l6.925-1.005.009-.006 3.1-6.278a.55.55 0 0 1 .991-.002z"/><path d="m48.5 35.314 3.1 6.28 6.926 1.007a.556.556 0 0 1 .307.947l-5.014 4.891 1.181 6.911a.555.555 0 0 1 -.8.585l-6.09-3.205a.231.231 0 0 0 -.214 0l-6.096 3.205a.555.555 0 0 1 -.8-.585l1.184-6.907-5.014-4.891a.556.556 0 0 1 .307-.947l6.923-1.005.009-.006 3.1-6.278a.55.55 0 0 1 .991-.002z"/></g></svg>