<svg enable-background="new 0 0 512 512" height="512" viewBox="0 0 512 512" width="512" xmlns="http://www.w3.org/2000/svg"><g id="_x32_8_Calendar"><g><path d="m483.315 168.539v283.478c0 18.425-14.947 33.372-33.372 33.372h-387.886c-18.425 0-33.372-14.947-33.372-33.372v-283.478z" fill="#fff"/><path d="m483.299 168.522v-71.141c0-18.415-14.928-33.344-33.344-33.344h-387.909c-18.415 0-33.344 14.929-33.344 33.344v71.141z"/><g><path d="m490.7 97.379c0-22.466-18.279-40.741-40.745-40.741h-13.748v-11.858c0-14.098-11.468-25.566-25.563-25.566s-25.559 11.468-25.559 25.566v11.858h-258.171v-11.858c0-14.098-11.464-25.566-25.559-25.566s-25.559 11.467-25.559 25.566v11.858h-13.751c-22.466 0-40.741 18.275-40.741 40.741-.004 70.047-.013 256.047-.018 354.638 0 22.481 18.289 40.77 40.774 40.77h387.885c22.481 0 40.77-18.289 40.77-40.77-.005-96.2-.01-229.558-.015-354.638zm-90.815-52.599c0-5.94 4.827-10.767 10.76-10.767 5.936 0 10.763 4.827 10.763 10.767v11.858h-21.523zm-309.29 0c0-5.94 4.827-10.767 10.76-10.767s10.76 4.827 10.76 10.767v11.858h-21.52zm-54.492 52.599c0-14.308 11.638-25.942 25.942-25.942h50.07v11.865c0 5.933-4.827 10.76-10.76 10.76-4.086 0-7.4 3.31-7.4 7.4s3.313 7.4 7.4 7.4c14.095 0 25.559-11.468 25.559-25.559v-11.866h294.495v11.865c0 5.933-4.827 10.76-10.763 10.76-4.086 0-7.4 3.31-7.4 7.4s3.313 7.4 7.4 7.4c14.095 0 25.563-11.468 25.563-25.559v-11.866h13.748c14.308 0 25.945 11.634 25.945 25.942v63.742h-439.799zm439.812 354.638c0 14.322-11.652 25.971-25.971 25.971h-387.885c-14.322 0-25.974-11.649-25.974-25.971v-276.076h439.83z"/><path d="m163.597 255.516h23.998c4.086 0 7.4-3.31 7.4-7.4v-23.998c0-4.09-3.313-7.4-7.4-7.4-4.086 0-7.4 3.31-7.4 7.4v16.598h-16.598c-4.086 0-7.4 3.31-7.4 7.4s3.314 7.4 7.4 7.4z"/><path d="m244.003 255.516h23.998c4.086 0 7.4-3.31 7.4-7.4v-23.998c0-4.09-3.313-7.4-7.4-7.4s-7.4 3.31-7.4 7.4v16.598h-16.598c-4.086 0-7.4 3.31-7.4 7.4s3.313 7.4 7.4 7.4z"/><path d="m324.405 255.516h23.998c4.086 0 7.4-3.31 7.4-7.4v-23.998c0-4.09-3.313-7.4-7.4-7.4s-7.4 3.31-7.4 7.4v16.598h-16.598c-4.086 0-7.4 3.31-7.4 7.4s3.313 7.4 7.4 7.4z"/><path d="m404.81 255.516h23.998c4.086 0 7.4-3.31 7.4-7.4v-23.998c0-4.09-3.313-7.4-7.4-7.4-4.086 0-7.4 3.31-7.4 7.4v16.598h-16.598c-4.086 0-7.4 3.31-7.4 7.4s3.314 7.4 7.4 7.4z"/><path d="m83.196 316.078h23.998c4.086 0 7.4-3.31 7.4-7.4v-23.998c0-4.09-3.313-7.4-7.4-7.4s-7.4 3.31-7.4 7.4v16.598h-16.598c-4.086 0-7.4 3.31-7.4 7.4 0 4.091 3.313 7.4 7.4 7.4z"/><path d="m163.597 316.078h23.998c4.086 0 7.4-3.31 7.4-7.4v-23.998c0-4.09-3.313-7.4-7.4-7.4-4.086 0-7.4 3.31-7.4 7.4v16.598h-16.598c-4.086 0-7.4 3.31-7.4 7.4.001 4.091 3.314 7.4 7.4 7.4z"/><path d="m244.003 316.078h23.998c4.086 0 7.4-3.31 7.4-7.4v-23.998c0-4.09-3.313-7.4-7.4-7.4s-7.4 3.31-7.4 7.4v16.598h-16.598c-4.086 0-7.4 3.31-7.4 7.4 0 4.091 3.313 7.4 7.4 7.4z"/><path d="m324.405 316.078h23.998c4.086 0 7.4-3.31 7.4-7.4v-23.998c0-4.09-3.313-7.4-7.4-7.4s-7.4 3.31-7.4 7.4v16.598h-16.598c-4.086 0-7.4 3.31-7.4 7.4 0 4.091 3.313 7.4 7.4 7.4z"/><path d="m404.81 316.078h23.998c4.086 0 7.4-3.31 7.4-7.4v-23.998c0-4.09-3.313-7.4-7.4-7.4-4.086 0-7.4 3.31-7.4 7.4v16.598h-16.598c-4.086 0-7.4 3.31-7.4 7.4 0 4.091 3.314 7.4 7.4 7.4z"/><path d="m83.196 376.648h23.998c4.086 0 7.4-3.31 7.4-7.4v-23.998c0-4.09-3.313-7.4-7.4-7.4s-7.4 3.31-7.4 7.4v16.598h-16.598c-4.086 0-7.4 3.31-7.4 7.4s3.313 7.4 7.4 7.4z"/><path d="m163.597 376.648h23.998c4.086 0 7.4-3.31 7.4-7.4v-23.998c0-4.09-3.313-7.4-7.4-7.4-4.086 0-7.4 3.31-7.4 7.4v16.598h-16.598c-4.086 0-7.4 3.31-7.4 7.4s3.314 7.4 7.4 7.4z"/><path d="m244.003 376.648h23.998c4.086 0 7.4-3.31 7.4-7.4v-23.998c0-4.09-3.313-7.4-7.4-7.4s-7.4 3.31-7.4 7.4v16.598h-16.598c-4.086 0-7.4 3.31-7.4 7.4s3.313 7.4 7.4 7.4z"/><path d="m324.405 376.648h23.998c4.086 0 7.4-3.31 7.4-7.4v-23.998c0-4.09-3.313-7.4-7.4-7.4s-7.4 3.31-7.4 7.4v16.598h-16.598c-4.086 0-7.4 3.31-7.4 7.4s3.313 7.4 7.4 7.4z"/><path d="m404.81 376.648h23.998c4.086 0 7.4-3.31 7.4-7.4v-23.998c0-4.09-3.313-7.4-7.4-7.4-4.086 0-7.4 3.31-7.4 7.4v16.598h-16.598c-4.086 0-7.4 3.31-7.4 7.4s3.314 7.4 7.4 7.4z"/><path d="m83.196 437.21h23.998c4.086 0 7.4-3.31 7.4-7.4v-23.998c0-4.09-3.313-7.4-7.4-7.4s-7.4 3.31-7.4 7.4v16.598h-16.598c-4.086 0-7.4 3.31-7.4 7.4 0 4.091 3.313 7.4 7.4 7.4z"/><path d="m163.597 437.21h23.998c4.086 0 7.4-3.31 7.4-7.4v-23.998c0-4.09-3.313-7.4-7.4-7.4-4.086 0-7.4 3.31-7.4 7.4v16.598h-16.598c-4.086 0-7.4 3.31-7.4 7.4.001 4.091 3.314 7.4 7.4 7.4z"/><path d="m244.003 437.21h23.998c4.086 0 7.4-3.31 7.4-7.4v-23.998c0-4.09-3.313-7.4-7.4-7.4s-7.4 3.31-7.4 7.4v16.598h-16.598c-4.086 0-7.4 3.31-7.4 7.4 0 4.091 3.313 7.4 7.4 7.4z"/></g></g></g></svg>